<?xml version="1.0" encoding="utf-8"?>
<!-- Generator: Adobe Illustrator 26.3.1, SVG Export Plug-In . SVG Version: 6.00 Build 0)  -->
<svg version="1.1" id="Capa_1" xmlns="http://www.w3.org/2000/svg" xmlns:xlink="http://www.w3.org/1999/xlink" x="0px" y="0px"
	 viewBox="0 0 186 60.4" style="enable-background:new 0 0 186 60.4;" xml:space="preserve">
<style type="text/css">
	.st0{fill:#04233A;}
</style>
<path class="st0" d="M168.5,22.8c-0.5,0-0.9-0.1-1.4-0.3c-0.4-0.2-0.8-0.5-1.1-0.8c-0.3-0.3-0.6-0.7-0.7-1.2
	c-0.1-0.4-0.2-0.9-0.1-1.4c0.1-1,0.6-1.9,1.3-2.6s1.7-1,2.7-1.1c0.5,0,0.9,0.1,1.4,0.3c0.4,0.2,0.8,0.5,1.1,0.8
	c0.3,0.3,0.6,0.8,0.7,1.2c0.1,0.4,0.2,0.9,0.1,1.4c-0.1,1-0.6,1.9-1.3,2.6C170.5,22.4,169.5,22.7,168.5,22.8z M167.6,34.1
	c-0.5,0-0.9-0.1-1.4-0.3s-0.8-0.5-1.1-0.8c-0.3-0.3-0.6-0.8-0.7-1.2s-0.2-0.9-0.1-1.4c0.1-1,0.6-1.9,1.3-2.6c0.7-0.7,1.7-1,2.7-1.1
	c0.5,0,0.9,0.1,1.4,0.3c0.4,0.2,0.8,0.5,1.1,0.8c0.3,0.3,0.5,0.7,0.7,1.2c0.1,0.4,0.2,0.9,0.1,1.4c-0.1,1-0.6,1.9-1.3,2.6
	C169.5,33.7,168.5,34.1,167.6,34.1z M166.6,45.4c-0.5,0-0.9-0.1-1.4-0.3c-0.4-0.2-0.8-0.5-1.1-0.8c-0.3-0.3-0.6-0.8-0.7-1.2
	c-0.1-0.4-0.2-0.9-0.1-1.4c0.1-1,0.6-1.9,1.3-2.6s1.7-1,2.7-1.1c0.5,0,0.9,0.1,1.4,0.3c0.4,0.2,0.8,0.5,1.1,0.8
	c0.3,0.3,0.6,0.8,0.7,1.2c0.1,0.4,0.2,0.9,0.1,1.4c-0.1,1-0.6,1.9-1.3,2.6C168.5,45,167.6,45.4,166.6,45.4z M157.2,22.8
	c-0.5,0-0.9-0.1-1.4-0.3c-0.4-0.2-0.8-0.5-1.1-0.8c-0.3-0.3-0.6-0.7-0.7-1.2c-0.1-0.4-0.2-0.9-0.1-1.4c0.1-1,0.6-1.9,1.3-2.6
	s1.7-1,2.7-1.1c0.5,0,0.9,0.1,1.4,0.3c0.4,0.2,0.8,0.5,1.1,0.8c0.3,0.3,0.6,0.8,0.7,1.2s0.2,0.9,0.1,1.4c-0.1,1-0.6,1.9-1.3,2.6
	S158.2,22.7,157.2,22.8z M156.2,34.1c-0.5,0-0.9-0.1-1.4-0.3c-0.4-0.2-0.8-0.5-1.1-0.8c-0.3-0.3-0.6-0.8-0.7-1.2
	c-0.1-0.4-0.2-0.9-0.1-1.4c0.1-1,0.6-1.9,1.3-2.6c0.7-0.7,1.7-1,2.7-1.1c0.5,0,0.9,0.1,1.4,0.3c0.4,0.2,0.8,0.5,1.1,0.8
	c0.3,0.3,0.6,0.7,0.7,1.2c0.1,0.4,0.2,0.9,0.1,1.4c-0.1,1-0.6,1.9-1.3,2.6C158.1,33.7,157.2,34.1,156.2,34.1z M155.2,45.4
	c-0.5,0-0.9-0.1-1.4-0.3c-0.4-0.2-0.8-0.5-1.1-0.8c-0.3-0.3-0.6-0.8-0.7-1.2c-0.1-0.4-0.2-0.9-0.1-1.4c0.1-1,0.6-1.9,1.3-2.6
	c0.7-0.7,1.7-1,2.7-1.1c0.5,0,0.9,0.1,1.4,0.3c0.4,0.2,0.8,0.5,1.1,0.8c0.3,0.3,0.6,0.8,0.7,1.2c0.1,0.4,0.2,0.9,0.1,1.4
	c-0.1,1-0.6,1.9-1.3,2.6C157.1,45,156.2,45.4,155.2,45.4z M145.8,22.8c-0.5,0-0.9-0.1-1.4-0.3c-0.4-0.2-0.8-0.5-1.1-0.8
	c-0.3-0.3-0.6-0.7-0.7-1.2c-0.1-0.4-0.2-0.9-0.1-1.4c0.1-1,0.6-1.9,1.3-2.6c0.7-0.7,1.7-1,2.7-1.1c0.5,0,0.9,0.1,1.4,0.3
	c0.4,0.2,0.8,0.5,1.1,0.8c0.3,0.3,0.6,0.8,0.7,1.2c0.1,0.4,0.2,0.9,0.1,1.4c-0.1,1-0.6,1.9-1.3,2.6S146.8,22.7,145.8,22.8z
	 M144.9,34.1c-0.5,0-0.9-0.1-1.4-0.3c-0.4-0.2-0.8-0.5-1.1-0.8c-0.3-0.3-0.6-0.8-0.7-1.2c-0.1-0.4-0.2-0.9-0.1-1.4
	c0.1-1,0.6-1.9,1.3-2.6c0.7-0.7,1.7-1,2.7-1.1c0.5,0,0.9,0.1,1.4,0.3c0.4,0.2,0.8,0.5,1.1,0.8c0.3,0.3,0.6,0.8,0.7,1.2
	c0.1,0.4,0.2,0.9,0.1,1.4c-0.1,1-0.6,1.9-1.3,2.6C146.8,33.7,145.8,34.1,144.9,34.1z M143.9,45.4c-0.5,0-0.9-0.1-1.4-0.3
	c-0.4-0.2-0.8-0.5-1.1-0.8c-0.3-0.3-0.6-0.8-0.7-1.2c-0.1-0.4-0.2-0.9-0.1-1.4c0.1-1,0.6-1.9,1.3-2.6c0.7-0.7,1.7-1,2.7-1.1
	c0.5,0,0.9,0.1,1.4,0.3c0.4,0.2,0.8,0.5,1.1,0.8c0.3,0.3,0.6,0.8,0.7,1.2c0.1,0.4,0.2,0.9,0.1,1.4c-0.1,1-0.6,1.9-1.3,2.6
	C145.8,45,144.9,45.4,143.9,45.4z M182.9,11.8C176.7,3.3,166.5,1.4,159,1.3c-7.4,0.1-18,2-25.6,10.5c-2.6,3-4.3,6.6-5,10.6
	c-1.2,7.7-0.5,15.5,2.2,22.8c1.4,3.8,3.8,7.1,7,9.5c3.2,2.5,6.9,4.1,10.9,4.5c1.8,0.2,3.6,0.3,5.4,0.3c1.8,0,3.7-0.1,5.5-0.3
	c8.4-1.1,16.2-6.4,20.3-14.1c4-7.4,6.2-15.7,6.2-22.8C186,18.2,184.9,14.7,182.9,11.8z"/>
<path class="st0" d="M83.3,40.5l0.3-3.4c0-0.1,0-0.3,0-0.4c0-0.1-0.1-0.2-0.2-0.3c-0.1-0.1-0.2-0.2-0.3-0.2s-0.3-0.1-0.4,0h-4.1
	c-0.1,0-0.3,0-0.4,0c-0.1,0-0.3,0.1-0.4,0.2c-0.1,0.1-0.2,0.2-0.2,0.3c-0.1,0.1-0.1,0.3-0.1,0.4l-0.3,3.4h-2.6c-0.1,0-0.3,0-0.4,0.1
	c-0.1,0-0.2,0.1-0.3,0.2c-0.1,0.1-0.2,0.2-0.2,0.3c-0.1,0.1-0.1,0.3-0.1,0.4l-0.3,3.5c0,0.1,0,0.3,0,0.4c0,0.1,0.1,0.2,0.2,0.3
	c0.1,0.1,0.2,0.2,0.3,0.2c0.1,0,0.2,0.1,0.4,0h2.6l-1.1,12.4c0,0.1,0,0.3,0,0.4c0,0.1,0.1,0.2,0.2,0.3c0.1,0.1,0.2,0.2,0.3,0.2
	c0.1,0,0.3,0.1,0.4,0h4.1c0.1,0,0.3,0,0.4-0.1c0.1,0,0.2-0.1,0.3-0.2c0.1-0.1,0.2-0.2,0.2-0.3c0.1-0.1,0.1-0.3,0.1-0.4l1.1-12.4h2.5
	c0.1,0,0.3,0,0.4,0c0.1,0,0.2-0.1,0.3-0.2c0.1-0.1,0.2-0.2,0.2-0.3c0.1-0.1,0.1-0.3,0.1-0.4l0.3-3.5c0-0.1,0-0.3,0-0.4
	c0-0.1-0.1-0.2-0.2-0.3c-0.1-0.1-0.2-0.2-0.3-0.2c-0.1,0-0.3-0.1-0.4,0H83.3z"/>
<path class="st0" d="M64.4,59.6c5,0,8.8-2.5,9.1-6.1c0.4-4-3.7-5.1-6.3-5.6c-2.5-0.5-4.2-0.8-4.1-2.1c0.1-0.9,1.1-1.6,2.4-1.6
	c0.6,0,1.9,0.1,2.2,1.1c0.1,0.2,0.2,0.4,0.4,0.5s0.4,0.2,0.6,0.1h3.6c0.6,0,1.1-0.3,1-1c-0.2-3.2-3.8-4.8-7.6-4.8
	c-4.8,0-8.3,2.5-8.6,6c-0.3,3.7,2.9,4.9,5.6,5.4c2.5,0.5,4.7,0.9,4.5,2.2c-0.1,0.9-1.2,1.6-2.6,1.7c-1.7,0.1-2.3-1.1-2.8-2.1
	c-0.1-0.1-0.2-0.3-0.4-0.3c-0.2-0.1-0.3-0.1-0.5-0.1h-4c-0.6,0-1.1,0.3-1,1C56.4,56.9,59.1,59.6,64.4,59.6"/>
<path class="st0" d="M27.9,59.6c5.3,0,9.4-3.4,9.8-8.1l0.9-9.9c0-0.1,0-0.3,0-0.4c0-0.1-0.1-0.2-0.2-0.3c-0.1-0.1-0.2-0.2-0.3-0.2
	c-0.1,0-0.3-0.1-0.4,0h-4.1c-0.1,0-0.3,0-0.4,0c-0.1,0-0.2,0.1-0.3,0.2c-0.1,0.1-0.2,0.2-0.2,0.3c-0.1,0.1-0.1,0.3-0.1,0.4l-0.8,9.9
	c0,0.9-0.4,1.7-1,2.3c-0.6,0.6-1.5,0.9-2.3,0.9c-1.8,0-3-1.3-2.8-3.2l0.9-9.9c0.1-0.6-0.3-1-0.9-1h-4.1c-0.1,0-0.3,0-0.4,0.1
	c-0.1,0-0.2,0.1-0.3,0.2c-0.1,0.1-0.2,0.2-0.2,0.3c-0.1,0.1-0.1,0.3-0.1,0.4l-0.9,9.9C19,56.3,22.5,59.6,27.9,59.6"/>
<path class="st0" d="M13.7,40.1c-2.2-0.1-4.2,0.4-5.8,2.2c0-0.3,0.1-0.6,0.1-0.9c0.1-0.6-0.3-1-0.9-1H2.9c-0.1,0-0.3,0-0.4,0
	c-0.1,0-0.2,0.1-0.3,0.2C2.1,40.8,2,41,2,41.1c-0.1,0.1-0.1,0.3-0.1,0.4L0.4,58.3c-0.1,0.6,0.3,1,0.9,1h4.2c0.1,0,0.3,0,0.4-0.1
	c0.1,0,0.2-0.1,0.3-0.2c0.1-0.1,0.2-0.2,0.2-0.3c0.1-0.1,0.1-0.3,0.1-0.4l0.9-10.1c0-0.9,0.4-1.7,1.1-2.4c0.7-0.6,1.5-0.9,2.4-0.9
	c1.8,0,3,1.3,2.8,3.3l-0.9,10.1c0,0.1,0,0.3,0,0.4c0,0.1,0.1,0.2,0.2,0.3c0.1,0.1,0.2,0.2,0.3,0.2c0.1,0,0.3,0.1,0.4,0h4.2
	c0.1,0,0.3,0,0.4-0.1c0.1,0,0.2-0.1,0.3-0.2c0.1-0.1,0.2-0.2,0.2-0.3c0.1-0.1,0.1-0.3,0.1-0.4l0.9-10.9
	C20.2,43.1,17.6,40.3,13.7,40.1"/>
<path class="st0" d="M48.3,44.7c1.8,0,3,1.1,3.4,2.9h-7.3C45.1,45.8,46.5,44.7,48.3,44.7L48.3,44.7z M57.5,50c0.5-5.7-3.3-9.8-9-9.8
	c-2.7-0.1-5.3,0.9-7.3,2.7c-2,1.8-3.2,4.3-3.4,7c-0.5,5.7,3.3,9.8,9,9.8c2,0,3.9-0.5,5.6-1.5c1.7-1,3.1-2.5,3.9-4.2
	c0.4-0.7,0-1.1-0.7-1.1h-4.1c-0.2,0-0.4,0-0.6,0.1c-0.2,0.1-0.4,0.2-0.5,0.4c-0.3,0.6-0.8,1-1.4,1.3c-0.6,0.3-1.2,0.5-1.9,0.5
	c-2,0-3.3-1.5-3.4-3.8h12.6C57,51.2,57.4,51,57.5,50"/>
<path class="st0" d="M107.1,40.1c-6,0-10.7,4.1-11.2,9.7c-0.5,5.6,3.5,9.8,9.5,9.8s10.6-4.1,11.1-9.8
	C117,44.2,113.1,40.1,107.1,40.1z M105.8,54.4c-2.4,0-3.9-1.9-3.7-4.5c0.2-2.6,2.1-4.5,4.5-4.5c2.4,0,3.9,1.9,3.7,4.5
	C110.1,52.5,108.2,54.4,105.8,54.4z"/>
<path class="st0" d="M100.9,42.2c0.1-0.1,0.1-0.2,0.2-0.2c0-0.1,0.1-0.2,0.1-0.3c0-0.1,0-0.2-0.1-0.3c-0.1-0.1-0.1-0.2-0.2-0.2
	c-1.5-1-3.9-1.1-5.7-0.5c-0.9,0.3-1.8,0.9-2.4,1.7l0.1-0.9c0-0.1,0-0.3,0-0.4c0-0.1-0.1-0.2-0.2-0.3c-0.1-0.1-0.2-0.2-0.3-0.2
	c-0.1,0-0.3-0.1-0.4,0h-4.2c-0.1,0-0.3,0-0.4,0c-0.1,0-0.2,0.1-0.3,0.2c-0.1,0.1-0.2,0.2-0.2,0.3c-0.1,0.1-0.1,0.3-0.1,0.4
	l-1.5,16.8c-0.1,0.6,0.3,1,0.9,1h4.2c0.3,0,0.5-0.1,0.7-0.3c0.2-0.2,0.3-0.4,0.3-0.7l0.7-7.9c0.2-2.4,2.1-4.3,4.9-3.7
	c0.4,0.1,1.1-0.8,1.2-1.2C98.7,44.3,99.8,43.2,100.9,42.2"/>
<path class="st0" d="M116.1,32.8c0.2,0,0.4,0,0.5-0.1c0.2-0.1,0.3-0.2,0.5-0.3c0.1-0.1,0.2-0.3,0.3-0.4c0.1-0.2,0.1-0.3,0.1-0.5
	L120,2.7c0-0.2,0-0.4,0-0.5s-0.1-0.3-0.2-0.5c-0.1-0.1-0.3-0.2-0.4-0.3s-0.3-0.1-0.5-0.1h-5.7c-0.2,0-0.4,0-0.5,0.1
	c-0.2,0.1-0.3,0.2-0.5,0.3c-0.1,0.1-0.2,0.3-0.3,0.4c-0.1,0.2-0.1,0.4-0.1,0.5l-2.5,28.8c0,0.2,0,0.4,0,0.5c0,0.2,0.1,0.3,0.2,0.5
	c0.1,0.1,0.3,0.2,0.4,0.3c0.2,0.1,0.3,0.1,0.5,0.1H116.1z"/>
<path class="st0" d="M74,20c-0.3,3.6-2.9,6.2-6.1,6.2c-3.2,0-5.4-2.6-5.1-6.2c0.3-3.6,2.9-6.1,6.2-6.1C72.2,13.8,74.3,16.4,74,20z
	 M83.6,1.3h-5.6c-0.2,0-0.4,0-0.6,0.1c-0.2,0.1-0.3,0.2-0.5,0.3c-0.1,0.1-0.2,0.3-0.3,0.5c-0.1,0.2-0.1,0.4-0.1,0.5l-0.7,7.9
	c-0.9-1.2-2.1-2.2-3.5-2.9c-1.4-0.7-2.9-1-4.4-1c-6.6,0-11.9,5.6-12.6,13.3c-0.7,7.7,3.6,13.4,10.3,13.4c1.6,0,3.2-0.4,4.7-1
	c1.5-0.7,2.8-1.6,3.9-2.9l-0.2,2c0,0.2-0.1,0.4,0,0.5c0,0.2,0.1,0.3,0.3,0.5c0.1,0.1,0.3,0.2,0.5,0.3c0.2,0.1,0.4,0.1,0.5,0h5.6
	c0.2,0,0.4,0,0.5-0.1c0.2-0.1,0.3-0.2,0.5-0.3c0.1-0.1,0.2-0.3,0.3-0.4c0.1-0.2,0.1-0.4,0.1-0.5l2.5-28.8c0-0.2,0-0.4,0-0.5
	c0-0.2-0.1-0.3-0.3-0.5c-0.1-0.1-0.3-0.2-0.4-0.3C83.9,1.3,83.8,1.3,83.6,1.3z"/>
<path class="st0" d="M24.4,20c-0.3,3.6-2.9,6.2-6.1,6.2c-3.2,0-5.4-2.6-5.1-6.2c0.3-3.6,2.9-6.1,6.2-6.1S24.8,16.4,24.4,20z
	 M21.6,6.7c-1.6,0-3.3,0.4-4.7,1c-1.5,0.7-2.8,1.7-3.9,2.9l0.2-2.1c0-0.2,0-0.4,0-0.5c0-0.2-0.1-0.3-0.2-0.5
	c-0.1-0.1-0.3-0.2-0.4-0.3c-0.2-0.1-0.3-0.1-0.5-0.1H6.2c-0.2,0-0.4,0-0.5,0.1C5.5,7.3,5.4,7.4,5.2,7.5C5.1,7.7,5,7.8,4.9,8
	C4.8,8.2,4.8,8.3,4.8,8.5L2.3,37.3c0,0.2,0,0.4,0,0.5c0,0.2,0.1,0.3,0.2,0.5c0.1,0.1,0.3,0.2,0.4,0.3c0.2,0.1,0.3,0.1,0.5,0.1h5.7
	c0.2,0,0.4,0,0.5-0.1c0.2-0.1,0.3-0.2,0.5-0.3c0.1-0.1,0.2-0.3,0.3-0.4c0.1-0.2,0.1-0.3,0.1-0.5l0.7-7.9c0.9,1.2,2.1,2.3,3.5,2.9
	c1.4,0.7,2.9,1,4.5,1c6.6,0,11.9-5.6,12.6-13.4C32.5,12.2,28.2,6.7,21.6,6.7z"/>
<path class="st0" d="M45,6.6c-7.2,0-11.4,2.7-12.5,8.1c0,0.2,0,0.3,0,0.5c0,0.2,0.1,0.3,0.2,0.5c0.1,0.1,0.3,0.2,0.4,0.3
	c0.2,0.1,0.3,0.1,0.5,0.1h5.2c0.3,0,0.5-0.1,0.7-0.2c0.2-0.2,0.4-0.4,0.4-0.6c0.6-1.7,1.7-2.3,4.1-2.3c2.1,0,3.5,0.7,3.4,1.9
	c-0.1,1.1-0.5,1.8-3.7,2.2c-7.3,1.1-12.5,2.3-13.1,9.1c-0.4,5,2.4,7.6,8.2,7.6c3.7,0,6.1-0.9,7.7-2.6l0,0.4c0,0.3,0.1,0.7,0.3,1
	c0.1,0.2,0.3,0.3,0.5,0.4c0.2,0.1,0.4,0.1,0.6,0.1h4.7c0.4,0,0.8-0.2,1.1-0.4c0.3-0.3,0.5-0.7,0.6-1.1l1.3-14.7
	C56.2,9.7,52.9,6.6,45,6.6L45,6.6z M45.2,26.3c-1.1,1-2.6,1.5-4.1,1.5c-1.6,0-2.4-0.7-2.3-2.1c0.1-1.5,0.9-2.4,4.7-3.2
	c1.2-0.2,2.4-0.5,3.5-1l-0.2,1.5C46.7,24.3,46.1,25.5,45.2,26.3"/>
<path class="st0" d="M42.6,1.3c-0.3,0-0.5,0.1-0.7,0.3c-0.2,0.2-0.3,0.4-0.4,0.7l-0.1,1.5c0,0.1,0,0.3,0,0.4c0,0.1,0.1,0.2,0.2,0.3
	c0.1,0.1,0.2,0.2,0.3,0.2c0.1,0.1,0.2,0.1,0.4,0.1h6.2c0.3,0,0.5-0.1,0.7-0.3s0.3-0.4,0.3-0.7l0.1-1.5c0-0.1,0-0.3,0-0.4
	c0-0.1-0.1-0.2-0.2-0.3c-0.1-0.1-0.2-0.2-0.3-0.2c-0.1-0.1-0.2-0.1-0.4-0.1H42.6z"/>
<path class="st0" d="M97.6,13.5c2.4,0,4.1,1.5,4.7,3.9h-10C93.3,15,95.2,13.5,97.6,13.5z M110.2,20.7c0.7-7.8-4.5-13.5-12.3-13.5
	s-14,5.6-14.7,13.3c-0.7,7.7,4.5,13.4,12.4,13.4c5.9,0,10.7-3.1,13.1-7.8c0.5-0.9,0-1.5-0.9-1.5h-5.6c-0.3,0-0.6,0-0.8,0.1
	c-0.3,0.1-0.5,0.3-0.6,0.5c-0.5,0.8-1.1,1.4-1.9,1.8c-0.8,0.4-1.7,0.6-2.6,0.6c-2.7,0-4.5-2-4.7-5.2h17.2
	C109.6,22.4,110.1,22.1,110.2,20.7"/>
</svg>
